<svg width="15" height="16" viewBox="0 0 15 16" fill="none" xmlns="http://www.w3.org/2000/svg">
<path d="M9.99991 7.99999C9.35742 7.99999 8.73617 7.6088 8.24992 6.89886C7.77711 6.20639 7.48836 5.28295 7.43743 4.29943C7.38305 3.25028 7.61774 2.28551 8.09805 1.58239C8.57836 0.879261 9.24992 0.5 9.99991 0.5C10.7446 0.5 11.418 0.886079 11.8968 1.5875C12.3802 2.29574 12.6155 3.2588 12.5611 4.299C12.509 5.2838 12.2205 6.20681 11.7487 6.89843C11.2637 7.6088 10.6427 7.99999 9.99991 7.99999ZM14.1196 15.5H5.88056C5.74809 15.5009 5.61723 15.4605 5.49804 15.3816C5.37886 15.3028 5.27452 15.1877 5.19306 15.0453C5.10666 14.8909 5.04699 14.7118 5.01852 14.5215C4.99006 14.3312 4.99353 14.1345 5.02869 13.9463C5.29181 12.5055 5.94368 11.3106 6.91368 10.4912C7.77461 9.76419 8.87054 9.36363 9.99991 9.36363C11.1515 9.36363 12.2187 9.74715 13.0846 10.4737C14.0568 11.2889 14.7096 12.4906 14.9714 13.9488C15.0062 14.1372 15.0093 14.3338 14.9805 14.5241C14.9517 14.7143 14.8918 14.8932 14.8052 15.0474C14.7238 15.1892 14.6197 15.3037 14.5009 15.3822C14.382 15.4606 14.2516 15.5009 14.1196 15.5ZM4.09369 8.17045C2.99401 8.17045 2.02714 6.77613 1.93745 5.06264C1.89308 4.1848 2.0937 3.37301 2.49995 2.7777C2.90182 2.18835 3.4687 1.86363 4.09369 1.86363C4.71869 1.86363 5.28119 2.19006 5.68525 2.78281C6.09462 3.38281 6.29462 4.19289 6.24774 5.06349C6.15806 6.77656 5.1915 8.17045 4.09369 8.17045ZM6.14556 9.51064C5.59587 9.14417 4.88244 8.96093 4.09401 8.96093C3.17339 8.96093 2.27933 9.2882 1.57621 9.88223C0.779023 10.5568 0.242776 11.5391 0.0262143 12.725C-0.00547766 12.8956 -0.00847517 13.0737 0.017446 13.2461C0.0433673 13.4185 0.0975362 13.5806 0.175901 13.7204C0.250259 13.8506 0.34552 13.9558 0.454358 14.0279C0.563195 14.1 0.68271 14.1371 0.80371 14.1363H4.27244C4.33099 14.1363 4.38768 14.1083 4.43262 14.0571C4.47756 14.006 4.50791 13.9349 4.51838 13.8564C4.52182 13.8295 4.52619 13.8027 4.53119 13.7763C4.79619 12.3248 5.41712 11.0984 6.33462 10.2044C6.36836 10.1712 6.39551 10.1271 6.41359 10.076C6.43167 10.0249 6.44011 9.96848 6.43816 9.91182C6.4362 9.85516 6.42391 9.80005 6.40239 9.75151C6.38087 9.70296 6.35081 9.6625 6.31493 9.6338C6.26587 9.59459 6.20962 9.55326 6.14556 9.51064Z" fill="#00A651"/>
</svg>
