<svg width="50" height="50" viewBox="0 0 50 50" fill="none" xmlns="http://www.w3.org/2000/svg">
<circle cx="25" cy="25" r="25" fill="#EDFFF6"/>
<path d="M29.6562 13C31.7396 13 33.4846 13.8135 34.8913 15.4406C36.2979 17.0677 37.0008 19.0026 37 21.2454C37 21.6412 36.9792 22.0317 36.9375 22.4169C36.8958 22.8021 36.8229 23.1812 36.7188 23.5541H28.9062L26.8125 20.19H24.5625L22.875 25.8628L21.4062 23.5541H12.2812C12.1771 23.1803 12.1042 22.8012 12.0625 22.4169C12.0208 22.0325 12 21.653 12 21.2784C12 19.0136 12.6979 17.0677 14.0938 15.4406C15.4896 13.8135 17.2292 13 19.3125 13C20.3125 13 21.2554 13.2089 22.1412 13.6266C23.0271 14.0444 23.8133 14.6271 24.5 15.3747C25.1667 14.6271 25.9429 14.0444 26.8287 13.6266C27.7146 13.2089 28.6571 13 29.6562 13ZM24.4688 38L14.125 27.0171C14 26.8852 13.8854 26.7533 13.7812 26.6214C13.6771 26.4894 13.5729 26.3465 13.4688 26.1926H20.0625L22.2188 29.5897H24.4375L26.125 23.8839L27.5625 26.1926H35.5L34.875 26.9842L24.4688 38Z" fill="#00A651"/>
</svg>
