<svg width="50" height="50" viewBox="0 0 50 50" fill="none" xmlns="http://www.w3.org/2000/svg">
<circle cx="25" cy="25" r="25" fill="#EDFFF6"/>
<path d="M28.9375 30.825C33.6562 31.5375 37 33.3625 37 35.5V38H12V35.5C12 33.3625 15.3437 31.5375 20.0625 30.825L24.5 36.75L28.9375 30.825ZM18.25 20.5H30.75V23C30.75 24.3261 30.0915 25.5979 28.9194 26.5355C27.7473 27.4732 26.1576 28 24.5 28C22.8424 28 21.2527 27.4732 20.0806 26.5355C18.9085 25.5979 18.25 24.3261 18.25 23V20.5ZM18.25 19.25L18.8906 14.125C18.9295 13.8156 19.1111 13.5289 19.4 13.3209C19.689 13.1129 20.0644 12.9985 20.4531 13H28.5625C29.3594 13 30.0312 13.4875 30.1094 14.125L30.75 19.25H18.25ZM24.5 14.25H22.9375V15.5H21.375V16.75H22.9375V18H24.5V16.75H26.0625V15.5H24.5V14.25Z" fill="#00A651"/>
</svg>
