<svg width="50" height="50" viewBox="0 0 50 50" fill="none" xmlns="http://www.w3.org/2000/svg">
<circle cx="25" cy="25" r="25" fill="#EDFFF6"/>
<path d="M23.1111 12V15.125H25.8889V12H23.1111ZM18.7778 13.5208L16.8056 14.9896L19.7639 17.2083L21.7222 15.7292L18.7778 13.5208ZM30.2222 13.5208L27.2778 15.7292L29.2361 17.2083L32.1944 15L30.2222 13.5208ZM24.5 17.2083C23.7633 17.2083 23.0567 17.4278 22.5358 17.8185C22.0149 18.2092 21.7222 18.7391 21.7222 19.2917V20.3333H16.8611C15.9444 20.3333 15.1667 20.7708 14.8889 21.375L12 27.625V35.9583C12 36.2346 12.1463 36.4996 12.4068 36.6949C12.6673 36.8903 13.0205 37 13.3889 37H14.7778C15.1461 37 15.4994 36.8903 15.7599 36.6949C16.0203 36.4996 16.1667 36.2346 16.1667 35.9583V34.9167H32.8333V35.9583C32.8333 36.2346 32.9797 36.4996 33.2401 36.6949C33.5006 36.8903 33.8539 37 34.2222 37H35.6111C35.9795 37 36.3327 36.8903 36.5932 36.6949C36.8537 36.4996 37 36.2346 37 35.9583V27.625L34.1111 21.375C33.8333 20.7708 33.0556 20.3333 32.1389 20.3333H27.2778V19.2917C27.2778 18.7391 26.9851 18.2092 26.4642 17.8185C25.9432 17.4278 25.2367 17.2083 24.5 17.2083ZM16.8611 21.8958H32.1389L34.2222 26.5833H14.7778L16.8611 21.8958ZM16.8611 28.6667C17.4136 28.6667 17.9435 28.8313 18.3343 29.1243C18.725 29.4173 18.9444 29.8148 18.9444 30.2292C18.9444 30.6436 18.725 31.041 18.3343 31.334C17.9435 31.627 17.4136 31.7917 16.8611 31.7917C16.3086 31.7917 15.7787 31.627 15.388 31.334C14.9973 31.041 14.7778 30.6436 14.7778 30.2292C14.7778 29.8148 14.9973 29.4173 15.388 29.1243C15.7787 28.8313 16.3086 28.6667 16.8611 28.6667ZM32.1389 28.6667C32.6914 28.6667 33.2213 28.8313 33.612 29.1243C34.0027 29.4173 34.2222 29.8148 34.2222 30.2292C34.2222 30.6436 34.0027 31.041 33.612 31.334C33.2213 31.627 32.6914 31.7917 32.1389 31.7917C31.5864 31.7917 31.0565 31.627 30.6658 31.334C30.275 31.041 30.0556 30.6436 30.0556 30.2292C30.0556 29.8148 30.275 29.4173 30.6658 29.1243C31.0565 28.8313 31.5864 28.6667 32.1389 28.6667Z" fill="#00A651"/>
</svg>
