<svg width="50" height="50" viewBox="0 0 50 50" fill="none" xmlns="http://www.w3.org/2000/svg">
<circle cx="25" cy="25" r="25" fill="#EDFFF6"/>
<path d="M24.5 12.5C25.4669 12.5 26.3943 13.1358 27.078 14.2675C27.7617 15.3991 28.1458 16.934 28.1458 18.5345C28.1458 20.1349 27.7617 21.6698 27.078 22.8015C26.3943 23.9332 25.4669 24.569 24.5 24.569C23.5331 24.569 22.6057 23.9332 21.922 22.8015C21.2383 21.6698 20.8542 20.1349 20.8542 18.5345C20.8542 16.934 21.2383 15.3991 21.922 14.2675C22.6057 13.1358 23.5331 12.5 24.5 12.5ZM17.2083 16.8103C17.7917 16.8103 18.3333 17.069 18.8021 17.5345C18.6458 20 19.0833 22.4483 19.9792 24.3621C19.4583 26.0172 18.4167 27.1552 17.2083 27.1552C16.3795 27.1552 15.5847 26.6102 14.9986 25.6402C14.4126 24.6702 14.0833 23.3546 14.0833 21.9828C14.0833 20.6109 14.4126 19.2953 14.9986 18.3253C15.5847 17.3553 16.3795 16.8103 17.2083 16.8103ZM31.7917 16.8103C32.6205 16.8103 33.4153 17.3553 34.0014 18.3253C34.5874 19.2953 34.9167 20.6109 34.9167 21.9828C34.9167 23.3546 34.5874 24.6702 34.0014 25.6402C33.4153 26.6102 32.6205 27.1552 31.7917 27.1552C30.5833 27.1552 29.5417 26.0172 29.0208 24.3621C29.9286 22.4211 30.3502 19.9761 30.1979 17.5345C30.6667 17.069 31.2083 16.8103 31.7917 16.8103ZM17.7292 34.4828C17.7292 30.9138 20.7604 28.0172 24.5 28.0172C28.2396 28.0172 31.2708 30.9138 31.2708 34.4828V37.5H17.7292V34.4828ZM12 37.5V34.9138C12 32.5172 13.9687 30.5 16.6354 29.9138C16.0208 31.0862 15.6458 32.7069 15.6458 34.4828V37.5H12ZM37 37.5H33.3542V34.4828C33.3542 32.7069 32.9792 31.0862 32.3646 29.9138C35.0312 30.5 37 32.5172 37 34.9138V37.5Z" fill="#00A651"/>
</svg>
