<svg width="40" height="40" viewBox="0 0 40 40" fill="none" xmlns="http://www.w3.org/2000/svg">
<g filter="url(#filter0_d_1_290)">
<circle cx="20" cy="16" r="10" fill="white"/>
</g>
<path d="M16.9615 13.9263C17.4925 13.9263 17.923 13.4951 17.923 12.9631C17.923 12.4312 17.4925 12 16.9615 12C16.4305 12 16 12.4312 16 12.9631C16 13.4951 16.4305 13.9263 16.9615 13.9263Z" fill="#00A651"/>
<path d="M18.8309 14.6561V19.9996H20.4871V17.3571C20.4871 16.6598 20.6181 15.9846 21.4811 15.9846C22.3323 15.9846 22.3429 16.7818 22.3429 17.4011V20H24V17.0697C24 15.6302 23.6906 14.524 22.0111 14.524C21.2047 14.524 20.6642 14.9673 20.4432 15.3868H20.4208V14.6561H18.8309ZM16.1318 14.6561H17.7907V19.9996H16.1318V14.6561Z" fill="#00A651"/>
<defs>
<filter id="filter0_d_1_290" x="0" y="0" width="40" height="40" filterUnits="userSpaceOnUse" color-interpolation-filters="sRGB">
<feFlood flood-opacity="0" result="BackgroundImageFix"/>
<feColorMatrix in="SourceAlpha" type="matrix" values="0 0 0 0 0 0 0 0 0 0 0 0 0 0 0 0 0 0 127 0" result="hardAlpha"/>
<feOffset dy="4"/>
<feGaussianBlur stdDeviation="5"/>
<feComposite in2="hardAlpha" operator="out"/>
<feColorMatrix type="matrix" values="0 0 0 0 0 0 0 0 0 0 0 0 0 0 0 0 0 0 0.1 0"/>
<feBlend mode="normal" in2="BackgroundImageFix" result="effect1_dropShadow_1_290"/>
<feBlend mode="normal" in="SourceGraphic" in2="effect1_dropShadow_1_290" result="shape"/>
</filter>
</defs>
</svg>
