<svg width="56" height="56" viewBox="0 0 56 56" fill="none" xmlns="http://www.w3.org/2000/svg">
<rect width="56" height="56" rx="28" fill="#00A651" fill-opacity="0.87"/>
<path d="M28 29.12C29.8557 29.12 31.36 27.6157 31.36 25.76C31.36 23.9043 29.8557 22.4 28 22.4C26.1444 22.4 24.64 23.9043 24.64 25.76C24.64 27.6157 26.1444 29.12 28 29.12Z" stroke="white" stroke-width="2.24" stroke-linecap="round" stroke-linejoin="round"/>
<path d="M28 16.8C25.6237 16.8 23.3447 17.744 21.6644 19.4243C19.984 21.1046 19.04 23.3836 19.04 25.76C19.04 27.879 19.4903 29.2656 20.72 30.8L28 39.2L35.28 30.8C36.5098 29.2656 36.96 27.879 36.96 25.76C36.96 23.3836 36.016 21.1046 34.3357 19.4243C32.6554 17.744 30.3764 16.8 28 16.8Z" stroke="white" stroke-width="2.24" stroke-linecap="round" stroke-linejoin="round"/>
</svg>
