<svg width="51" height="50" viewBox="0 0 51 50" fill="none" xmlns="http://www.w3.org/2000/svg">
<circle cx="25.5" cy="25" r="25" fill="#EDFFF6"/>
<path d="M23.759 12.7003C23.5429 12.7007 23.3269 12.7063 23.1111 12.7168C22.6473 12.8089 22.4331 13.0355 22.3168 13.295C22.1887 13.581 22.1937 13.9659 22.3366 14.3082C22.4795 14.6506 22.7417 14.9305 23.1078 15.0351C23.4739 15.1397 23.9779 15.0856 24.6403 14.613L25.1698 15.5381C24.3375 16.1319 23.5321 16.2885 22.8644 16.0978C22.1968 15.9071 21.7014 15.3858 21.4454 14.7725C21.2042 14.1948 21.1599 13.517 21.3912 12.9151C19.133 13.3227 17.0882 14.2894 15.5176 15.65C15.0014 16.2777 14.9509 17.0074 15.1772 17.5057C15.4313 18.0652 16.0301 18.4737 17.2277 18.0508L17.5253 19.097C16.0215 19.628 14.7819 19.0625 14.3008 18.0031C14.1835 17.7448 14.1118 17.4653 14.0837 17.177C13.8304 17.5126 13.6017 17.8618 13.3996 18.2251L13.4063 18.2287C12.953 19.3808 12.9427 20.1789 13.1234 20.6975C13.3042 21.2161 13.683 21.5456 14.2663 21.7273C15.4327 22.0902 17.3216 21.6522 18.6517 20.5434C19.221 20.0688 19.7607 18.9177 19.8077 18.025C19.8311 17.5786 19.7464 17.226 19.5791 17.0008C19.4118 16.7756 19.1438 16.6071 18.5892 16.6135L18.5793 15.5159C19.3416 15.5071 19.9606 15.7952 20.3355 16.2997C20.7103 16.8042 20.8227 17.454 20.7893 18.0893C20.7225 19.3599 20.1266 20.6838 19.2403 21.4226C17.6683 22.7332 15.5919 23.279 14.0032 22.7846C13.2671 22.5555 12.6156 22.0571 12.2799 21.285C11.7776 23.9544 12.5074 26.4339 13.8963 28.1498C14.0778 28.3742 14.271 28.5862 14.4735 28.783C14.3286 28.3197 14.2622 27.8373 14.2777 27.3678C14.3056 26.5264 14.5978 25.7029 15.1838 25.1341C15.6645 24.6674 16.3284 24.3981 17.1225 24.3999C17.1754 24.3999 17.2295 24.4009 17.2836 24.4034C17.4072 24.4093 17.5342 24.4213 17.6635 24.4402L17.5351 25.5287C16.7149 25.4084 16.1825 25.6181 15.8284 25.9619C15.4742 26.3057 15.2789 26.8202 15.2594 27.4083C15.2205 28.5844 15.8945 29.9578 17.3478 30.3561L17.3462 30.3672C18.777 30.672 20.3736 30.389 21.9766 29.297C21.9775 29.2963 21.9789 29.296 21.9799 29.2952C22.3135 29.0339 22.4932 28.7779 22.5817 28.5573C22.6862 28.297 22.684 28.0703 22.6096 27.8268C22.461 27.3398 21.9287 26.8393 21.4405 26.6998C20.6511 26.4742 20.1497 26.7841 19.9146 27.1532C19.6795 27.5221 19.6652 27.8845 20.028 28.1993L19.4245 29.0657C18.678 28.4176 18.6304 27.275 19.1138 26.5162C19.4764 25.9472 20.1127 25.5573 20.8799 25.5324C20.9122 25.5311 20.9445 25.5305 20.9769 25.5306C21.2035 25.5324 21.4394 25.5672 21.6839 25.6369C22.4998 25.8701 23.2541 26.5343 23.5403 27.4725C23.6167 27.724 23.6502 27.9892 23.639 28.2545C24.5183 27.753 25.4455 27.3076 26.39 26.9732C27.9768 26.1638 28.6648 24.7448 28.6379 23.55C28.6108 22.3463 27.944 21.3333 26.4081 21.1638L26.5052 20.0716C28.4345 20.2846 29.5814 21.8248 29.6196 23.5224C29.6418 24.5115 29.3168 25.5408 28.6625 26.417C29.5082 26.3112 30.3487 26.3291 31.1635 26.5125C30.9977 26.1324 30.9173 25.7209 30.9285 25.3121C30.9641 24.0177 31.9503 22.8103 33.5002 22.7919C33.6061 22.7908 33.712 22.7951 33.8175 22.8047L33.7386 23.8987C32.4269 23.7813 31.9337 24.5498 31.9118 25.3469C31.8901 26.1351 32.3614 27.0175 33.7124 27.1346C35.2015 27.1493 36.269 26.2478 36.7921 24.9081C37.4925 23.1146 37.1603 20.4255 34.9587 17.9662C34.917 17.9196 34.8757 17.8726 34.8337 17.8267C34.8106 18.0457 34.7603 18.2601 34.6842 18.4636C34.3027 19.485 33.4091 20.1745 32.4808 20.3671C31.2003 20.6327 30.1503 20.053 29.6657 19.1685C29.181 18.2841 29.3083 17.0334 30.1803 16.375L30.7312 17.2854C30.2622 17.6395 30.2429 18.1189 30.5043 18.5958C30.7656 19.0729 31.3551 19.486 32.3015 19.2897C32.8964 19.1663 33.5589 18.6243 33.7764 18.0416C33.8853 17.7503 33.9064 17.4623 33.7979 17.1329C33.7097 16.8654 33.5249 16.5594 33.1812 16.2372L33.1713 16.2281C31.734 15.0189 30.2069 14.1492 28.6593 13.5757C28.6602 13.5776 28.6616 13.5793 28.6626 13.5812C29.0143 14.299 29.0404 15.1132 28.8238 15.8334C28.3906 17.2739 27.031 18.4089 25.3492 18.3461C24.9837 18.3326 24.6357 18.5294 24.3397 18.9134C24.0436 19.2973 23.8275 19.8598 23.7773 20.4589C23.6771 21.6571 24.1416 22.9779 25.9528 23.6307L25.6499 24.6751C23.4882 23.896 22.6596 21.9999 22.7969 20.358C22.8657 19.5371 23.1498 18.7743 23.5945 18.1977C24.0391 17.621 24.6718 17.2225 25.3819 17.2487C26.6469 17.2958 27.6089 16.4215 27.8912 15.4829C28.0323 15.0137 28.014 14.5468 27.7991 14.1082C27.5903 13.6822 27.1766 13.261 26.4359 12.9537C25.5519 12.7823 24.6562 12.6975 23.759 12.7003ZM29.0849 27.4982C26.8793 27.6985 24.4878 28.8727 22.4928 30.2331C19.5472 32.2418 16.4474 31.8033 14.2481 29.9817C15.1133 33.438 18.1793 34.1396 21.3779 33.2654C21.698 33.1312 22.0125 32.8814 22.2807 32.5588C22.652 32.112 22.9211 31.5327 23.0058 31.0537L23.971 31.2666C23.8424 31.9939 23.4933 32.7154 23.0025 33.3059C22.5316 33.8725 21.918 34.325 21.2085 34.4439C20.8525 35.3291 20.5595 36.1872 20.4406 36.7878C20.2538 37.7312 21.1881 38.0933 21.6064 37.142C22.6073 34.8664 24.02 32.8407 25.7847 31.0941C27.1561 30.0866 28.3317 28.8443 29.0849 27.4982Z" fill="#00A651"/>
</svg>
