<svg width="51" height="50" viewBox="0 0 51 50" fill="none" xmlns="http://www.w3.org/2000/svg">
<circle cx="25.5" cy="25" r="25" fill="#EDFFF6"/>
<path d="M36.502 23.2385C35.8743 23.9591 35.01 24.4316 34.065 24.5708C33.12 24.7101 32.1563 24.5069 31.3477 23.9978C31.3442 23.9965 31.3402 23.9965 31.3366 23.9978L23.4864 31.8552V31.8642C23.8045 32.3769 24.0031 32.9547 24.0676 33.5548C24.132 34.1549 24.0607 34.7617 23.8588 35.3304C23.6569 35.8991 23.3297 36.415 22.9014 36.8399C22.4731 37.2648 21.9547 37.5877 21.3847 37.7847C20.8147 37.9817 20.2077 38.0477 19.6087 37.9779C19.0097 37.9081 18.4341 37.7042 17.9246 37.3813C17.4151 37.0585 16.9847 36.625 16.6654 36.113C16.3462 35.601 16.1462 35.0237 16.0803 34.4237C15.4809 34.3578 14.904 34.1577 14.3924 33.8382C13.8808 33.5187 13.4476 33.088 13.125 32.5781C12.8024 32.0682 12.5987 31.4921 12.5289 30.8926C12.4592 30.2932 12.5251 29.6857 12.722 29.1152C12.9188 28.5448 13.2415 28.026 13.666 27.5974C14.0906 27.1687 14.6061 26.8412 15.1743 26.6392C15.7426 26.4372 16.349 26.3658 16.9486 26.4303C17.5482 26.4948 18.1256 26.6936 18.6379 27.0119C18.6415 27.0133 18.6455 27.0133 18.6491 27.0119L26.4993 19.1545V19.1456C26.1812 18.6328 25.9826 18.055 25.9181 17.455C25.8536 16.8549 25.925 16.248 26.1268 15.6793C26.3287 15.1106 26.6559 14.5947 27.0842 14.1699C27.5125 13.745 28.0309 13.4221 28.6009 13.2251C29.1709 13.0281 29.778 12.9621 30.377 13.0319C30.976 13.1017 31.5516 13.3056 32.0611 13.6284C32.5706 13.9513 33.0009 14.3848 33.3202 14.8968C33.6395 15.4088 33.8395 15.9861 33.9053 16.586C34.638 16.6632 35.3354 16.9405 35.9211 17.3877C36.5069 17.8349 36.9585 18.4346 37.2266 19.1214C37.4947 19.8082 37.5688 20.5555 37.441 21.2816C37.3132 22.0077 36.9884 22.6847 36.502 23.2385Z" fill="#00A651"/>
</svg>


 