<svg width="51" height="50" viewBox="0 0 51 50" fill="none" xmlns="http://www.w3.org/2000/svg">
<circle cx="25.5" cy="25" r="25" fill="#EDFFF6"/>
<path d="M20.1229 21.4295L20.2863 21.417C20.3455 21.4112 20.4021 21.3922 20.4509 21.3618L20.4497 21.3629C20.6061 21.8441 20.7975 22.3504 21.0368 22.8806C21.3438 23.5744 21.6461 24.1442 21.9846 24.6942L21.9379 24.6109C21.9099 24.9901 21.8761 25.3797 21.8317 25.7568C21.8123 25.9793 21.7617 26.1987 21.6811 26.4099L21.687 26.3912C21.673 26.3964 21.6531 28.5579 21.6531 28.5579C21.6536 29.2286 21.9068 29.8797 22.3722 30.4063C22.8376 30.9329 23.488 31.3045 24.2187 31.4612L24.242 31.4654C24.2745 31.3902 24.3316 31.3254 24.406 31.2797C24.4803 31.234 24.5684 31.2094 24.6587 31.2091H25.3287C25.4182 31.2102 25.5053 31.2348 25.5792 31.2798C25.6531 31.3248 25.7105 31.3883 25.7442 31.4622L25.7454 31.4654C26.4823 31.3133 27.1401 30.9437 27.6123 30.4164C28.0845 29.8891 28.3434 29.235 28.3471 28.56C28.3471 28.56 28.3063 26.4068 28.2853 26.3922C28.2157 26.1909 28.168 25.984 28.1429 25.7745L28.1417 25.7589C28.1008 25.3797 28.074 24.9995 28.0355 24.613C28.3238 24.1484 28.6261 23.5796 28.8922 22.9931L28.9366 22.8827C29.1758 22.3525 29.3614 21.8472 29.5237 21.3649C29.5716 21.3953 29.6275 21.4143 29.6859 21.4201H29.6871L29.8517 21.4326C30.0501 21.4514 30.2252 21.3056 30.2415 21.0795L30.4189 19.068V19.0659C30.4188 18.9849 30.3857 18.9068 30.3258 18.846C30.2659 18.7853 30.1832 18.746 30.0933 18.7357H30.0711C30.2265 17.6882 30.1303 16.6232 29.7886 15.6116L29.8038 15.6647C29.4746 15.0123 28.9739 14.4404 28.3442 13.9975C27.7144 13.5547 26.9743 13.2539 26.1866 13.1208L26.1562 13.1167C25.7743 13.0483 25.3866 13.0093 24.9972 13H24.9727C24.5654 13.0065 24.1597 13.0477 23.7611 13.1229L23.8031 13.1167C23.0158 13.2471 22.275 13.5439 21.6426 13.9824C21.0102 14.4208 20.5047 14.988 20.1684 15.6366L20.1556 15.6647C19.8195 16.6724 19.73 17.7329 19.893 18.7742L19.8883 18.7357C19.7981 18.7444 19.7147 18.7824 19.6539 18.8426C19.5932 18.9027 19.5595 18.9807 19.5591 19.0617V19.069L19.7365 21.0805C19.7529 21.3118 19.9303 21.4514 20.1217 21.4326L20.1229 21.4295Z" fill="#00A651"/>
<path d="M37.4981 34.7426C37.4164 31.5758 37.0616 30.8591 36.8701 30.3736C36.7943 30.1788 36.7324 28.8621 34.2953 28.0079C32.8012 27.4829 30.873 27.4725 29.2412 26.8568V28.5694C29.2395 29.4474 28.8958 30.2975 28.2688 30.9741C27.6419 31.6506 26.7708 32.1116 25.8049 32.2779L25.7781 32.2821C25.7606 32.3745 25.7073 32.4584 25.6275 32.5194C25.5477 32.5803 25.4465 32.6143 25.3415 32.6154H25.3205V33.9071C25.3205 34.5133 25.5903 35.0946 26.0706 35.5232C26.5508 35.9518 27.2022 36.1926 27.8814 36.1926C28.5606 36.1926 29.212 35.9518 29.6922 35.5232C30.1725 35.0946 30.4423 34.5133 30.4423 33.9071V33.005C30.0898 32.9589 29.7684 32.799 29.539 32.5557C29.3096 32.3124 29.1881 32.0025 29.1974 31.6847C29.2068 31.3668 29.3463 31.063 29.5896 30.8308C29.833 30.5985 30.1632 30.4539 30.518 30.4243C30.8727 30.3947 31.2273 30.4821 31.5147 30.6701C31.802 30.858 32.0023 31.1335 32.0775 31.4443C32.1527 31.7551 32.0977 32.0797 31.9228 32.3567C31.748 32.6338 31.4654 32.844 31.1286 32.9477L31.1181 32.9508V33.9561C31.1181 34.7225 30.777 35.4575 30.1697 35.9994C29.5625 36.5413 28.739 36.8458 27.8802 36.8458C27.0215 36.8458 26.1979 36.5413 25.5907 35.9994C24.9835 35.4575 24.6424 34.7225 24.6424 33.9561V33.904V33.9061V32.6029C24.5424 32.5968 24.4477 32.5608 24.3735 32.5007C24.2994 32.4406 24.2502 32.3598 24.2338 32.2716V32.2696C23.2668 32.105 22.3941 31.6454 21.765 30.9696C21.136 30.2938 20.7898 29.4438 20.7859 28.5652V26.8391C19.1471 27.4673 17.2072 27.4798 15.705 28.0058C13.2608 28.859 13.2048 30.1726 13.1301 30.3705C12.9433 30.858 12.5838 31.5716 12.5021 34.7405C12.4881 35.1572 12.5021 35.7957 13.9098 36.3541C16.9749 37.4271 20.9236 37.7604 24.8163 38H25.1898C29.0906 37.7625 33.0335 37.4302 36.0963 36.3541C37.4981 35.7989 37.511 35.1634 37.4981 34.7426ZM20.3622 33.4509H18.9078V34.754H17.869V33.455H16.4146V32.5279H17.869V31.2299H18.9078V32.5279H20.3622V33.4509Z" fill="#00A651"/>
<path d="M31.4391 31.7081C31.4389 31.5222 31.3561 31.3429 31.2087 31.2115C31.0613 31.0802 30.8615 31.0064 30.6532 31.0065C30.445 31.0065 30.2452 31.0804 30.098 31.2119C29.9507 31.3434 29.868 31.5217 29.868 31.7076C29.868 31.8934 29.9507 32.0717 30.098 32.2032C30.2452 32.3347 30.445 32.4086 30.6532 32.4086C30.8615 32.4087 31.0613 32.3349 31.2087 32.2036C31.3561 32.0722 31.4389 31.894 31.4391 31.7081Z" fill="#00A651"/>
</svg>
