<svg width="51" height="10" viewBox="0 0 51 10" fill="none" xmlns="http://www.w3.org/2000/svg">
<path d="M4.77177 0.513321C5.03584 -0.171107 5.964 -0.171107 6.22807 0.513321L7.19023 3.01312L9.76753 3.19581C10.4735 3.24558 10.7597 4.16656 10.2172 4.63966L8.2354 6.36709L8.8655 8.97937C9.03806 9.69515 8.28638 10.2637 7.68765 9.87239L5.49992 8.43946L3.31219 9.87171C2.71346 10.2637 1.96177 9.69447 2.13433 8.97937L2.76444 6.36709L0.782609 4.63966C0.240089 4.16656 0.527036 3.24558 1.23231 3.19581L3.80961 3.01312L4.77177 0.513321Z" fill="#EE9621"/>
<path d="M14.7718 0.513321C15.0358 -0.171107 15.964 -0.171107 16.2281 0.513321L17.1902 3.01312L19.7675 3.19581C20.4735 3.24558 20.7597 4.16656 20.2172 4.63966L18.2354 6.36709L18.8655 8.97937C19.0381 9.69515 18.2864 10.2637 17.6876 9.87239L15.4999 8.43946L13.3122 9.87171C12.7135 10.2637 11.9618 9.69447 12.1343 8.97937L12.7644 6.36709L10.7826 4.63966C10.2401 4.16656 10.527 3.24558 11.2323 3.19581L13.8096 3.01312L14.7718 0.513321Z" fill="#EE9621"/>
<path d="M24.7718 0.513321C25.0358 -0.171107 25.964 -0.171107 26.2281 0.513321L27.1902 3.01312L29.7675 3.19581C30.4735 3.24558 30.7597 4.16656 30.2172 4.63966L28.2354 6.36709L28.8655 8.97937C29.0381 9.69515 28.2864 10.2637 27.6876 9.87239L25.4999 8.43946L23.3122 9.87171C22.7135 10.2637 21.9618 9.69447 22.1343 8.97937L22.7644 6.36709L20.7826 4.63966C20.2401 4.16656 20.527 3.24558 21.2323 3.19581L23.8096 3.01312L24.7718 0.513321Z" fill="#EE9621"/>
<path d="M34.7718 0.513321C35.0358 -0.171107 35.964 -0.171107 36.2281 0.513321L37.1902 3.01312L39.7675 3.19581C40.4735 3.24558 40.7597 4.16656 40.2172 4.63966L38.2354 6.36709L38.8655 8.97937C39.0381 9.69515 38.2864 10.2637 37.6876 9.87239L35.4999 8.43946L33.3122 9.87171C32.7135 10.2637 31.9618 9.69447 32.1343 8.97937L32.7644 6.36709L30.7826 4.63966C30.2401 4.16656 30.527 3.24558 31.2323 3.19581L33.8096 3.01312L34.7718 0.513321Z" fill="#EE9621"/>
<path d="M44.7718 0.513321C45.0358 -0.171107 45.964 -0.171107 46.2281 0.513321L47.1902 3.01312L49.7675 3.19581C50.4735 3.24558 50.7597 4.16656 50.2172 4.63966L48.2354 6.36709L48.8655 8.97937C49.0381 9.69515 48.2864 10.2637 47.6876 9.87239L45.4999 8.43946L43.3122 9.87171C42.7135 10.2637 41.9618 9.69447 42.1343 8.97937L42.7644 6.36709L40.7826 4.63966C40.2401 4.16656 40.527 3.24558 41.2323 3.19581L43.8096 3.01312L44.7718 0.513321Z" fill="#EE9621"/>
</svg>
