<svg width="50" height="50" viewBox="0 0 50 50" fill="none" xmlns="http://www.w3.org/2000/svg">
<circle cx="25" cy="25" r="25" fill="#EDFFF6"/>
<path d="M34.0193 13.1572H15.2642C13.6534 13.1572 12.1465 14.6681 12.1465 16.2781V35.0277C12.1465 36.6376 13.6602 38.1568 15.2701 38.1568H34.0193C35.6308 38.1568 37.1465 36.6459 37.1465 35.0368V16.2797C37.1465 14.6697 35.6304 13.1572 34.0193 13.1572ZM25.332 16.0666C25.7262 16.0665 26.1121 16.18 26.4434 16.3934C26.7748 16.6069 27.0377 16.9112 27.2006 17.2702H26.0358C25.9962 17.1115 25.9046 16.9707 25.7757 16.8701C25.6468 16.7695 25.488 16.7149 25.3245 16.7149C24.9796 16.7149 24.6916 16.9521 24.6116 17.2702H23.4631C23.6262 16.9114 23.8891 16.6071 24.2205 16.3937C24.5518 16.1803 24.9379 16.0667 25.332 16.0666ZM23.313 17.7545H24.6572C24.7159 17.8819 24.81 17.9898 24.9281 18.0654C25.0463 18.141 25.1836 18.1812 25.3239 18.1812C25.4642 18.1812 25.6016 18.141 25.7197 18.0654C25.8379 17.9898 25.9319 17.8819 25.9907 17.7545H27.3515C27.3725 17.8725 27.3859 17.9933 27.3859 18.1181C27.3858 18.3876 27.3325 18.6544 27.2292 18.9033C27.126 19.1522 26.9747 19.3784 26.784 19.5688C26.5933 19.7592 26.3669 19.9102 26.1179 20.0132C25.8688 20.1161 25.6019 20.169 25.3324 20.1688C24.7882 20.169 24.2662 19.9531 23.8811 19.5686C23.4961 19.184 23.2795 18.6623 23.2789 18.1181C23.2789 17.9933 23.2912 17.8725 23.313 17.7545ZM14.9972 20.9914C14.2689 19.6595 14.6036 18.0337 15.7149 17.0852L15.3457 16.4096C15.3376 16.395 15.3324 16.3789 15.3306 16.3623C15.3287 16.3457 15.3301 16.3289 15.3348 16.3129C15.3395 16.2969 15.3473 16.2819 15.3578 16.2689C15.3683 16.256 15.3813 16.2452 15.396 16.2373L16.3184 15.7347C16.333 15.7266 16.3491 15.7215 16.3656 15.7197C16.3822 15.7179 16.399 15.7194 16.415 15.7241C16.431 15.7288 16.4458 15.7367 16.4588 15.7472C16.4717 15.7577 16.4824 15.7707 16.4903 15.7854L16.8602 16.4602C18.2587 16.0412 19.8084 16.6373 20.5359 17.97L18.7486 18.9458C18.8868 19.2058 18.9168 19.5098 18.8323 19.7918C18.7477 20.0738 18.5553 20.3111 18.2968 20.4521C18.0384 20.5931 17.7347 20.6265 17.4518 20.545C17.1689 20.4635 16.9296 20.2736 16.7858 20.0167L14.9972 20.9914ZM20.5102 29.8209C20.51 30.0644 20.4618 30.3054 20.3684 30.5303C20.275 30.7552 20.1383 30.9595 19.966 31.1316C19.7936 31.3036 19.5891 31.44 19.364 31.533C19.139 31.626 18.8978 31.6738 18.6543 31.6736C18.4108 31.6738 18.1696 31.626 17.9446 31.533C17.7195 31.44 17.515 31.3036 17.3427 31.1316C17.1703 30.9595 17.0336 30.7552 16.9402 30.5303C16.8468 30.3054 16.7986 30.0644 16.7984 29.8209C16.7987 29.5774 16.8469 29.3364 16.9403 29.1116C17.0337 28.8867 17.1705 28.6825 17.3428 28.5105C17.5152 28.3386 17.7197 28.2022 17.9447 28.1093C18.1697 28.0164 18.4109 27.9687 18.6543 27.9689C19.146 27.9685 19.6177 28.1634 19.9657 28.5107C20.3137 28.8579 20.5096 29.3292 20.5102 29.8209ZM27.2481 34.7837H16.7739V32.9187C16.7739 32.5754 17.0519 32.2969 17.3953 32.2969H27.2481V34.7837ZM27.2481 31.674H22.3898C21.9827 31.6737 21.5924 31.512 21.3044 31.2243C21.0165 30.9366 20.8545 30.5463 20.8539 30.1393C20.8543 29.7321 21.0162 29.3418 21.3042 29.054C21.5922 28.7663 21.9827 28.6046 22.3898 28.6046H27.2481V31.674ZM26.8148 26.9416C26.7586 26.8564 26.7197 26.7609 26.7004 26.6606C26.681 26.5603 26.6816 26.4572 26.7022 26.3572C26.7227 26.2572 26.7627 26.1621 26.82 26.0776C26.8772 25.993 26.9506 25.9206 27.0358 25.8644L28.984 24.5808L28.4347 23.0687H27.675L28.1214 24.2956L26.6422 25.2703C26.4786 25.3776 26.338 25.5163 26.2283 25.6783C26.1187 25.8403 26.0422 26.0224 26.0033 26.2141C25.9634 26.4058 25.9619 26.6035 25.9989 26.7958C26.0359 26.9881 26.1106 27.1712 26.2188 27.3345C26.3075 27.4668 26.4144 27.5792 26.5344 27.6755H24.4873C24.6073 27.5792 24.715 27.4668 24.8029 27.3345C24.9113 27.1713 24.9861 26.9882 25.023 26.7959C25.0599 26.6035 25.0582 26.4058 25.018 26.2141C24.9793 26.0223 24.9029 25.84 24.7932 25.678C24.6835 25.5159 24.5428 25.3772 24.3792 25.2699L22.9007 24.2952L23.3451 23.0683H22.5863L22.0381 24.5804L23.9859 25.864C24.0737 25.919 24.1496 25.9909 24.2092 26.0757C24.2688 26.1605 24.3108 26.2563 24.3328 26.3575C24.3548 26.4588 24.3563 26.5634 24.3373 26.6652C24.3182 26.7671 24.279 26.8641 24.2219 26.9506C24.1649 27.037 24.0911 27.1112 24.0049 27.1687C23.9188 27.2263 23.822 27.266 23.7202 27.2856C23.6185 27.3051 23.5139 27.3042 23.4125 27.2827C23.3111 27.2612 23.2151 27.2197 23.13 27.1606L20.6761 25.544C20.2512 25.2552 20.292 24.8236 20.37 24.6319L21.4136 21.6603C21.6151 21.1003 22.0049 20.6627 23.1019 20.6627H27.9206C29.0184 20.6627 29.4074 21.0999 29.6097 21.6603L30.6537 24.6319C30.7313 24.8239 30.7713 25.2552 30.3468 25.544L27.8937 27.1606C27.7215 27.2742 27.5114 27.3149 27.3093 27.2737C27.1072 27.2326 26.9289 27.1134 26.8148 26.9416ZM33.9532 34.7837H27.938V28.5658H33.9532V34.7837Z" fill="#00A651"/>
</svg>
